#define right-hand_width 64
#define right-hand_height 48
static char right-hand_bits[] = {
 0x00,0x00,0x00,0x00,0x00,0x00,0x00,0x00,0x00,0x00,0x00,0x00,0x00,0x00,0x00,
 0x00,0x00,0x00,0x00,0x00,0x00,0x00,0x00,0x00,0x00,0x00,0x00,0x00,0x00,0x00,
 0x00,0x00,0x00,0x00,0x00,0x00,0x00,0x00,0x00,0x00,0x00,0x00,0x00,0x00,0x00,
 0x00,0x00,0x00,0x00,0x00,0x00,0x00,0x00,0x00,0x00,0x00,0x00,0x00,0x00,0x00,
 0x00,0x00,0x00,0x00,0x00,0x00,0x00,0x00,0x00,0x00,0x00,0x00,0x00,0x00,0x00,
 0x00,0x00,0x00,0x00,0x00,0x00,0x00,0x00,0x01,0x00,0x00,0x00,0x00,0x00,0x00,
 0x00,0x03,0x00,0x00,0x00,0x00,0x00,0x00,0x00,0x05,0x00,0x00,0x00,0x00,0x00,
 0x00,0x00,0x1a,0x00,0x00,0x00,0x00,0x00,0x00,0x00,0xd4,0x02,0x00,0x00,0x00,
 0x00,0x00,0x00,0xac,0xfa,0x02,0x00,0x00,0x00,0x00,0x00,0x74,0x95,0x2a,0x00,
 0x00,0x90,0x24,0x55,0x89,0xef,0xaa,0x00,0x04,0x48,0xaa,0x55,0xa1,0x5a,0x5f,
 0x05,0x01,0xb4,0xad,0x5a,0xa5,0xba,0xaa,0x4a,0x05,0xd0,0xb6,0xb5,0x00,0xea,
 0x77,0xab,0x02,0x40,0xd5,0xae,0x06,0x44,0xad,0x2a,0x05,0x00,0x00,0x00,0x95,
 0x58,0xb7,0x55,0x05,0x00,0x00,0xc0,0x0b,0xe4,0xaa,0xaa,0x05,0x00,0x00,0xf0,
 0x96,0xb2,0xda,0x6a,0x05,0x00,0x00,0x78,0x5f,0x55,0x6d,0xab,0x05,0x00,0x00,
 0xd8,0xa5,0xaa,0x56,0x55,0x05,0x00,0x00,0xf8,0xa3,0x5a,0xab,0xda,0x05,0x00,
 0x00,0xd8,0x0a,0x6a,0x59,0x55,0x02,0x00,0x00,0x00,0x09,0xb4,0xa5,0xaa,0x07,
 0x00,0x00,0x80,0x4e,0xdc,0xb6,0xd6,0x04,0x00,0x00,0x40,0x1b,0x77,0xaf,0x5a,
 0x03,0x00,0x00,0xc0,0x57,0xb4,0xbb,0x6d,0x05,0x00,0x00,0xc0,0x2f,0xea,0xee,
 0x56,0x05,0x00,0x00,0xc0,0x95,0xbd,0xbb,0xab,0x02,0x00,0x00,0x00,0x1b,0xd0,
 0xee,0xb6,0x00,0x00,0x00,0x00,0x1c,0xb4,0xb5,0x55,0x00,0x00,0x00,0x00,0xea,
 0xd4,0xde,0x8a,0x00,0x00,0x00,0x00,0xbe,0x54,0x6b,0x07,0x00,0x00,0x00,0x00,
 0x57,0xea,0xbe,0x00,0x00,0x00,0x00,0x00,0x3c,0x96,0x02,0x00,0x00,0x00,0x00,
 0x00,0xa0,0x01,0x00,0x00,0x00,0x00,0x00,0x00,0x00,0x00,0x00,0x00,0x00,0x00,
 0x00,0x00,0x00,0x00,0x00,0x00,0x00,0x00,0x00,0x00,0x00,0x00,0x00,0x00,0x00,
 0x00,0x00,0x00,0x00,0x00,0x00,0x00,0x00,0x00,0x00,0x00,0x00,0x00,0x00,0x00,
 0x00,0x00,0x00,0x00,0x00,0x00,0x00,0x00,0x00};
